<svg xmlns="http://www.w3.org/2000/svg" viewBox="0 0 111 30" fill="#E50914">
  <path d="M105.062 14.28L111 30c-1.75-.25-3.499-.563-5.28-.845l-3.345-8.686-3.437 7.969c-1.687-.282-3.344-.376-5.031-.595l6.031-13.75L94.468 0h5.063l3.062 7.874L105.875 0h5.132l-5.937 14.28zM90.47 0h-4.594v27.25c1.5.094 3.062.156 4.594.343V0zm-8.563 26.937c-4.187-.281-8.375-.53-12.656-.625V0h4.687v21.875c2.688.062 5.375.281 7.969.405v4.657zM64.25 10.657v4.687h-9.406v9.844c-2.562-.187-5.125-.37-7.688-.5v-14.344h9.406v-4.656h-9.406V0h-4.5v27.187c-1.563.023-3.125.023-4.688.03V0H24.593v27.25c-1.5.063-3.062.156-4.656.25V0H15.5v27.25c-1.5.063-3.062.156-4.656.25V0H5.844v27.25c-1.5.063-3.062.156-4.656.25V0H0v30h111V0H64.25v10.657z"/>
</svg>

